<svg xmlns="http://www.w3.org/2000/svg" width="600" height="300"><g><text style="line-height:279.99999523%" x="30.514" y="815.883" font-size="15.374" letter-spacing="0" word-spacing="0" fill="#888a85" font-family="Sans" transform="translate(0 -752.362)"><tspan x="30.514" y="815.883" style="line-height:279.99999523%;-inkscape-font-specification:Ubuntu" fill="#888a85" font-family="Ubuntu">/api/user</tspan><tspan x="30.514" y="858.931" style="line-height:279.99999523%;-inkscape-font-specification:Ubuntu" fill="#888a85" font-family="Ubuntu">/api/comment</tspan><tspan x="30.514" y="901.979" style="line-height:279.99999523%;-inkscape-font-specification:Ubuntu" fill="#888a85" font-family="Ubuntu">/api/location</tspan><tspan x="30.514" y="945.027" style="line-height:279.99999523%;-inkscape-font-specification:Ubuntu" fill="#888a85" font-family="Ubuntu">/api/journey</tspan><tspan x="30.514" y="988.075" style="line-height:279.99999523%;-inkscape-font-specification:Ubuntu" fill="#888a85" font-family="Ubuntu">/api/image</tspan></text><g transform="matrix(1.418 0 0 1.418 -182.409 -78.1)"><g><rect width="77.143" height="136.244" x="451.429" y="91.026" rx="1.98" ry="1.98"/><path d="M496.688 213.428c0 3.693-2.994 6.688-6.688 6.688-3.694 0-6.688-2.995-6.688-6.688 0-3.694 2.994-6.688 6.688-6.688 3.694 0 6.688 2.994 6.688 6.688z" fill="#fff"/></g><rect ry="1.98" rx="1.98" y="98.076" x="456.071" height="99.286" width="67.857" fill="#eeeeec"/></g><text y="785.675" x="397.449" style="line-height:150%" font-size="10.37" letter-spacing="0" word-spacing="0" font-family="Sans" transform="translate(0 -752.362)"><tspan style="line-height:150%;-inkscape-font-specification:Ubuntu" y="785.675" x="397.449" font-family="Ubuntu">app URL: /journey/john-doe-in-china</tspan></text><g><g><g transform="translate(40.1 -.48)" fill="#edd400"><rect ry="1.98" rx="1.592" y="138.708" x="140.563" height="5.051" width="260.859"/><path d="M134.97 141.234l4.74 2.737 4.74 2.737V135.76l-4.74 2.737z"/></g><g transform="translate(-26.328 -4.766)" fill="#888a85"><path d="M185.554 142.698c-4.87 0-8.813 3.943-8.813 8.812 0 4.87 3.944 8.883 8.814 8.883.126 0 .25.005.375 0v-5.036c-.094.007-.187-.013-.282-.013-2.195 0-3.97-1.546-3.97-3.74 0-2.195 2.036-3.882 4.23-3.882.095 0-.072-.062.02-.056v-4.97c-.124-.004-.248 0-.374 0z"/><rect width="278.603" height="4.975" x="184.063" y="155.342" rx="1.592" ry="1.98"/><path d="M468.95 157.868l-4.74 2.736-4.74 2.737V152.395l4.74 2.737z"/><path d="M186.013 142.664h7.29c.88 0 1.59.558 1.59 1.25v2.55c0 .692-.71 1.25-1.59 1.25h-7.29c-.883 0-1.593-.558-1.593-1.25v-2.55c0-.692.71-1.25 1.593-1.25z"/></g></g><g><path d="M381.356 146.928c0 7.496-6.076 13.572-13.57 13.572-7.497 0-13.573-6.076-13.573-13.572 0-7.495 6.076-13.57 13.572-13.57 7.495 0 13.57 6.075 13.57 13.57z" fill="#eeeeec"/><text y="154.83" x="273.51" style="line-height:150%" font-size="15.374" letter-spacing="0" word-spacing="0" font-family="Sans" transform="translate(90.999 -3.648)"><tspan style="line-height:150%;-inkscape-font-specification:Ubuntu" y="154.83" x="273.51" font-size="12" font-family="Ubuntu">2</tspan></text></g></g><g><g><g transform="translate(40.1 42.654)" fill="#edd400"><rect width="260.859" height="5.051" x="140.563" y="138.708" rx="1.592" ry="1.98"/><path d="M134.97 141.234l4.74 2.737 4.74 2.737V135.76l-4.74 2.737z"/></g><g transform="translate(-26.328 38.368)" fill="#888a85"><path d="M185.554 142.698c-4.87 0-8.813 3.943-8.813 8.812 0 4.87 3.944 8.883 8.814 8.883.126 0 .25.005.375 0v-5.036c-.094.007-.187-.013-.282-.013-2.195 0-3.97-1.546-3.97-3.74 0-2.195 2.036-3.882 4.23-3.882.095 0-.072-.062.02-.056v-4.97c-.124-.004-.248 0-.374 0z"/><rect ry="1.98" rx="1.592" y="155.342" x="184.063" height="4.975" width="278.603"/><path d="M468.95 157.868l-4.74 2.736-4.74 2.737V152.395l4.74 2.737z"/><path d="M186.013 142.664h7.29c.88 0 1.59.558 1.59 1.25v2.55c0 .692-.71 1.25-1.59 1.25h-7.29c-.883 0-1.593-.558-1.593-1.25v-2.55c0-.692.71-1.25 1.593-1.25z"/></g></g><g><path d="M413 190.06c0 7.497-6.077 13.573-13.572 13.573-7.496 0-13.572-6.076-13.572-13.572 0-7.494 6.076-13.57 13.572-13.57 7.495 0 13.57 6.076 13.57 13.57z" fill="#eeeeec"/><text style="line-height:150%" x="274.014" y="154.734" font-size="15.374" letter-spacing="0" word-spacing="0" font-family="Sans" transform="translate(122.642 39.485)"><tspan x="274.014" y="154.734" style="line-height:150%;-inkscape-font-specification:Ubuntu" font-size="12" font-family="Ubuntu">1</tspan></text></g></g><g><g><g transform="translate(40.1 85.788)" fill="#edd400"><rect ry="1.98" rx="1.592" y="138.708" x="140.563" height="5.051" width="260.859"/><path d="M134.97 141.234l4.74 2.737 4.74 2.737V135.76l-4.74 2.737z"/></g><g transform="translate(-26.328 81.502)" fill="#888a85"><path d="M185.554 142.698c-4.87 0-8.813 3.943-8.813 8.812 0 4.87 3.944 8.883 8.814 8.883.126 0 .25.005.375 0v-5.036c-.094.007-.187-.013-.282-.013-2.195 0-3.97-1.546-3.97-3.74 0-2.195 2.036-3.882 4.23-3.882.095 0-.072-.062.02-.056v-4.97c-.124-.004-.248 0-.374 0z"/><rect width="278.603" height="4.975" x="184.063" y="155.342" rx="1.592" ry="1.98"/><path d="M468.95 157.868l-4.74 2.736-4.74 2.737V152.395l4.74 2.737z"/><path d="M186.013 142.664h7.29c.88 0 1.59.558 1.59 1.25v2.55c0 .692-.71 1.25-1.59 1.25h-7.29c-.883 0-1.593-.558-1.593-1.25v-2.55c0-.692.71-1.25 1.593-1.25z"/></g></g><g><path d="M382.947 233.194c0 7.496-6.076 13.572-13.57 13.572-7.497 0-13.573-6.076-13.573-13.572 0-7.495 6.076-13.57 13.572-13.57 7.495 0 13.57 6.075 13.57 13.57z" fill="#eeeeec"/><text y="155.904" x="273.234" style="line-height:150%" font-size="15.374" letter-spacing="0" word-spacing="0" font-family="Sans" transform="translate(92.59 82.619)"><tspan style="line-height:150%;-inkscape-font-specification:Ubuntu" y="155.904" x="273.234" font-size="12" font-family="Ubuntu">2</tspan></text></g><g><path d="M310.115 233.194c0 7.496-6.076 13.572-13.57 13.572-7.497 0-13.573-6.076-13.573-13.572 0-7.495 6.076-13.57 13.572-13.57 7.495 0 13.57 6.075 13.57 13.57z" fill="#eeeeec"/><text style="line-height:150%" x="273.234" y="155.904" font-size="15.374" letter-spacing="0" word-spacing="0" font-family="Sans" transform="translate(19.758 82.619)"><tspan x="273.234" y="155.904" style="line-height:150%;-inkscape-font-specification:Ubuntu" font-size="12" font-family="Ubuntu">4</tspan></text></g></g><g><g><g transform="translate(40.1 -43.613)" fill="#edd400"><rect width="260.859" height="5.051" x="140.563" y="138.708" rx="1.592" ry="1.98"/><path d="M134.97 141.234l4.74 2.737 4.74 2.737V135.76l-4.74 2.737z"/></g><g transform="translate(-26.328 -47.899)" fill="#888a85"><path d="M185.554 142.698c-4.87 0-8.813 3.943-8.813 8.812 0 4.87 3.944 8.883 8.814 8.883.126 0 .25.005.375 0v-5.036c-.094.007-.187-.013-.282-.013-2.195 0-3.97-1.546-3.97-3.74 0-2.195 2.036-3.882 4.23-3.882.095 0-.072-.062.02-.056v-4.97c-.124-.004-.248 0-.374 0z"/><rect ry="1.98" rx="1.592" y="155.342" x="184.063" height="4.975" width="278.603"/><path d="M468.95 157.868l-4.74 2.736-4.74 2.737V152.395l4.74 2.737z"/><path d="M186.013 142.664h7.29c.88 0 1.59.558 1.59 1.25v2.55c0 .692-.71 1.25-1.59 1.25h-7.29c-.883 0-1.593-.558-1.593-1.25v-2.55c0-.692.71-1.25 1.593-1.25z"/></g></g><g><path d="M381.356 103.794c0 7.496-6.076 13.572-13.57 13.572-7.497 0-13.573-6.076-13.573-13.572 0-7.495 6.076-13.57 13.572-13.57 7.495 0 13.57 6.075 13.57 13.57z" fill="#eeeeec"/><text style="line-height:150%" x="273.51" y="154.83" font-size="15.374" letter-spacing="0" word-spacing="0" font-family="Sans" transform="translate(90.999 -46.781)"><tspan x="273.51" y="154.83" style="line-height:150%;-inkscape-font-specification:Ubuntu" font-size="12" font-family="Ubuntu">2</tspan></text></g></g><g><g><g transform="translate(40.1 -86.746)" fill="#edd400"><rect ry="1.98" rx="1.592" y="138.708" x="140.563" height="5.051" width="260.859"/><path d="M134.97 141.234l4.74 2.737 4.74 2.737V135.76l-4.74 2.737z"/></g><g transform="translate(-26.328 -91.032)" fill="#888a85"><path d="M185.554 142.698c-4.87 0-8.813 3.943-8.813 8.812 0 4.87 3.944 8.883 8.814 8.883.126 0 .25.005.375 0v-5.036c-.094.007-.187-.013-.282-.013-2.195 0-3.97-1.546-3.97-3.74 0-2.195 2.036-3.882 4.23-3.882.095 0-.072-.062.02-.056v-4.97c-.124-.004-.248 0-.374 0z"/><rect width="278.603" height="4.975" x="184.063" y="155.342" rx="1.592" ry="1.98"/><path d="M468.95 157.868l-4.74 2.736-4.74 2.737V152.395l4.74 2.737z"/><path d="M186.013 142.664h7.29c.88 0 1.59.558 1.59 1.25v2.55c0 .692-.71 1.25-1.59 1.25h-7.29c-.883 0-1.593-.558-1.593-1.25v-2.55c0-.692.71-1.25 1.593-1.25z"/></g></g><g><path d="M345.117 60.66c0 7.496-6.076 13.572-13.57 13.572-7.497 0-13.573-6.076-13.573-13.572 0-7.495 6.076-13.57 13.572-13.57 7.495 0 13.57 6.075 13.57 13.57z" fill="#eeeeec"/><text y="154.74" x="276.908" style="line-height:150%" font-size="15.374" letter-spacing="0" word-spacing="0" font-family="Sans" transform="translate(54.76 -89.915)"><tspan style="text-align:center;line-height:150%;-inkscape-font-specification:Ubuntu" y="154.74" x="276.908" font-size="12" text-anchor="middle" font-family="Ubuntu">3</tspan></text></g></g><text style="line-height:150%" x="29.617" y="785.655" font-size="10.37" letter-spacing="0" word-spacing="0" font-family="Sans" transform="translate(0 -752.362)"><tspan x="29.617" y="785.655" style="line-height:150%;-inkscape-font-specification:Ubuntu" font-family="Ubuntu">endpoints</tspan></text><g><text y="411.831" x="168.238" style="line-height:150%" font-size="10.37" letter-spacing="0" word-spacing="0" font-family="Sans" transform="translate(0 -752.362) translate(98.454 614.088)"><tspan style="line-height:150%;-inkscape-font-specification:Ubuntu" y="411.831" x="168.238" font-family="Ubuntu">Client request</tspan></text><text style="line-height:150%" x="279.738" y="411.437" font-size="10.37" letter-spacing="0" word-spacing="0" font-family="Sans" transform="translate(0 -752.362) translate(98.454 614.088)"><tspan x="279.738" y="411.437" style="line-height:150%;-inkscape-font-specification:Ubuntu" font-family="Ubuntu">API Response</tspan></text><path fill="#edd400" d="M251.454 265.868h9.25v9.25h-9.25z"/><path fill="#888a85" d="M363.954 265.868h9.25v9.25h-9.25z"/></g></g></svg>