<svg xmlns="http://www.w3.org/2000/svg" width="600" height="270"><g><g transform="matrix(1.418 0 0 1.418 -176.662 -74.102)"><g><rect ry="1.98" rx="1.98" y="91.026" x="451.429" height="136.244" width="77.143"/><path d="M496.688 213.428c0 3.693-2.994 6.688-6.688 6.688-3.694 0-6.688-2.995-6.688-6.688 0-3.694 2.994-6.688 6.688-6.688 3.694 0 6.688 2.994 6.688 6.688z" fill="#fff"/></g><rect width="67.857" height="99.286" x="456.071" y="98.076" rx="1.98" ry="1.98" fill="#eeeeec"/></g><text style="line-height:150%" x="402.488" y="819.673" font-size="10.37" letter-spacing="0" word-spacing="0" font-family="Sans" transform="translate(0 -782.362)"><tspan x="402.488" y="819.673" style="line-height:150%;-inkscape-font-specification:Ubuntu" font-family="Ubuntu">app URL: /journey/john-doe-in-china</tspan></text><g><g><g transform="translate(45.847 4.152)" fill="#edd400"><rect ry="1.98" rx="1.592" y="138.708" x="191.244" height="5.051" width="210.178"/><path d="M185.99 141.234l4.74 2.737 4.74 2.737V135.76l-4.74 2.737z"/></g><g transform="translate(-20.581 -.134)" fill="#888a85"><path d="M232.74 142.698c-4.868 0-8.81 3.943-8.81 8.812 0 4.87 3.942 8.883 8.81 8.883.127 0 .252.005.376 0v-5.036c-.093.007-.186-.013-.28-.013-2.195 0-3.97-1.546-3.97-3.74 0-2.195 2.035-3.882 4.23-3.882.095 0-.073-.062.02-.056v-4.97c-.124-.004-.25 0-.375 0z"/><rect width="231.853" height="4.975" x="230.813" y="155.342" rx="1.592" ry="1.98"/><path d="M468.95 157.868l-4.74 2.736-4.74 2.737V152.395l4.74 2.737z"/><path d="M233.2 142.664h7.29c.88 0 1.592.558 1.592 1.25v2.55c0 .692-.71 1.25-1.593 1.25h-7.29c-.882 0-1.592-.558-1.592-1.25v-2.55c0-.692.71-1.25 1.592-1.25z"/></g></g><g><path d="M418.746 151.56c0 7.495-6.076 13.57-13.57 13.57-7.497 0-13.573-6.075-13.573-13.57 0-7.496 6.076-13.572 13.572-13.572 7.495 0 13.57 6.076 13.57 13.57z" fill="#eeeeec"/><text y="154.734" x="274.014" style="line-height:150%" font-size="15.374" letter-spacing="0" word-spacing="0" font-family="Sans" transform="translate(128.389 .983)"><tspan style="line-height:150%;-inkscape-font-specification:Ubuntu" y="154.734" x="274.014" font-size="12" font-family="Ubuntu">1</tspan></text></g></g><text y="910.869" x="34.237" style="line-height:150%" font-size="10.37" letter-spacing="0" word-spacing="0" font-family="Sans" transform="translate(0 -782.362)"><tspan style="line-height:150%;-inkscape-font-specification:Ubuntu" y="910.869" x="34.237" font-family="Ubuntu">merged endpoints</tspan></text><g><text style="line-height:150%" x="168.238" y="411.831" font-size="10.37" letter-spacing="0" word-spacing="0" font-family="Sans" transform="translate(0 -782.362) translate(108.332 603.538)"><tspan x="168.238" y="411.831" style="line-height:150%;-inkscape-font-specification:Ubuntu" font-family="Ubuntu">Client request</tspan></text><path fill="#edd400" d="M261.332 225.318h9.25v9.25h-9.25z"/></g><g><text y="411.437" x="279.738" style="line-height:150%" font-size="10.37" letter-spacing="0" word-spacing="0" font-family="Sans" transform="translate(0 -782.362) translate(104.2 603.538)"><tspan style="line-height:150%;-inkscape-font-specification:Ubuntu" y="411.437" x="279.738" font-family="Ubuntu">API Response</tspan></text><path fill="#888a85" d="M369.7 225.318h9.25v9.25h-9.25z"/></g><g><text y="411.831" x="55.808" style="line-height:150%" font-size="10.37" letter-spacing="0" word-spacing="0" font-family="Sans" transform="translate(0 -782.362) translate(119.19 603.538)"><tspan style="line-height:150%;-inkscape-font-specification:Ubuntu" y="411.831" x="55.808" font-family="Ubuntu">Cache token</tspan></text><path fill="#e9b96e" d="M159.76 225.318h9.25v9.25h-9.25z"/></g><text style="line-height:279.99999523%" x="35.761" y="939.002" font-size="15.374" letter-spacing="0" word-spacing="0" fill="#888a85" font-family="Sans" transform="translate(0 -782.362)"><tspan x="35.761" y="939.002" style="line-height:279.99999523%;-inkscape-font-specification:Ubuntu" fill="#888a85" font-family="Ubuntu">/api/merged/journey</tspan></text><g transform="translate(0 -782.362) translate(-101.549 392.406)"><rect y="560.569" x="410.829" height="16.263" width="54.801" rx="3.536" ry="3.536" fill="#e9b96e"/><text y="572.697" x="415.882" style="line-height:279.99999523%" font-size="11.516" letter-spacing="0" word-spacing="0" fill="#fff" font-family="Sans"><tspan style="line-height:279.99999523%;-inkscape-font-specification:Ubuntu" y="572.697" x="415.882" fill="#fff" font-family="Ubuntu">xcv45w2</tspan></text></g></g></svg>